<svg width="62" height="62" viewBox="0 0 62 62" fill="none" xmlns="http://www.w3.org/2000/svg">
<path d="M43.9047 61.2059C44.5708 62.0869 45.8251 62.2611 46.7062 61.5949L61.064 50.7389C61.9451 50.0727 62.1193 48.8185 61.4531 47.9374C60.7869 47.0563 59.5326 46.8821 58.6516 47.5483L45.8891 57.1981L36.2393 44.4356C35.5731 43.5545 34.3188 43.3803 33.4377 44.0465C32.5567 44.7127 32.3825 45.967 33.0486 46.848L43.9047 61.2059ZM0.366735 4.49562C13.1305 5.34645 22.0881 9.24916 28.4007 14.4985C34.7278 19.76 38.5346 26.4888 40.7917 33.1998C43.0516 39.9191 43.7378 46.5648 43.852 51.5533C43.909 54.0417 43.8234 56.1028 43.7245 57.5346C43.675 58.2501 43.6223 58.8074 43.5826 59.181C43.5627 59.3678 43.5461 59.5086 43.5349 59.6003C43.5292 59.6461 43.5249 59.6797 43.5222 59.7005C43.5208 59.7109 43.5198 59.7182 43.5193 59.7222C43.519 59.7242 43.5189 59.7254 43.5188 59.7258C43.5188 59.726 43.5188 59.7257 43.5188 59.7258C43.5189 59.7252 43.519 59.7245 45.5 59.9996C47.481 60.2748 47.4811 60.2736 47.4813 60.2723C47.4814 60.2716 47.4816 60.27 47.4818 60.2686C47.4822 60.2657 47.4827 60.2619 47.4833 60.2574C47.4846 60.2483 47.4862 60.236 47.4882 60.2205C47.4923 60.1893 47.498 60.1454 47.5049 60.0889C47.5188 59.976 47.5379 59.8132 47.5602 59.6036C47.6047 59.1846 47.6619 58.5783 47.7149 57.8104C47.821 56.2754 47.9112 54.0904 47.851 51.4617C47.7308 46.2158 47.0107 39.1427 44.583 31.9246C42.1525 24.6981 37.9905 17.2708 30.9582 11.423C23.9114 5.56309 14.119 1.40346 0.632781 0.504481L0.366735 4.49562Z" fill="#23A6F0"/>
</svg>
